<svg xmlns="http://www.w3.org/2000/svg" width="139.277" height="105.987" viewBox="0 0 139.277 105.987">
  <g id="Group_5750" data-name="Group 5750" transform="translate(-32.174 -43.449)">
    <g id="Group_5296" data-name="Group 5296">
      <path id="Path_16255" data-name="Path 16255" d="M32.174,124.406H43.146a11.774,11.774,0,0,1,3.481.465,6.507,6.507,0,0,1,2.45,1.319,5.87,5.87,0,0,1,1.954,4.6,4.584,4.584,0,0,1-1.046,3.1,6.138,6.138,0,0,1-2.794,1.8v.1a6.212,6.212,0,0,1,3.309,2.194,6.129,6.129,0,0,1,1.252,3.874,7.406,7.406,0,0,1-.532,2.966,5.869,5.869,0,0,1-1.629,2.143,7.5,7.5,0,0,1-2.639,1.439,11.352,11.352,0,0,1-3.532.515H32.174Zm10.354,9.876a4.258,4.258,0,0,0,2.64-.755,2.894,2.894,0,0,0,.052-4.32,4.033,4.033,0,0,0-2.589-.754H37.146v5.829Zm-5.382,10.526h5.726A4.084,4.084,0,0,0,45.7,143.9a3.092,3.092,0,0,0,1.012-2.418,3.153,3.153,0,0,0-1.133-2.639,4.449,4.449,0,0,0-2.844-.892H37.146Z" fill="#0c0b0c"/>
      <path id="Path_16256" data-name="Path 16256" d="M65.363,148.922a2.349,2.349,0,0,1-.344-.823,8.962,8.962,0,0,1-.2-1.131h-.069a6.115,6.115,0,0,1-.771.942,4.1,4.1,0,0,1-1.028.738,6.1,6.1,0,0,1-1.423.5,8.83,8.83,0,0,1-1.954.189,6.866,6.866,0,0,1-4.424-1.371,4.831,4.831,0,0,1-1.714-4.012,4.99,4.99,0,0,1,.548-2.434,4.735,4.735,0,0,1,1.51-1.645,7.6,7.6,0,0,1,2.245-1.012,20.793,20.793,0,0,1,2.761-.566,19.669,19.669,0,0,0,3.221-.652,1.322,1.322,0,0,0,1.029-1.336,1.825,1.825,0,0,0-.736-1.527,3.609,3.609,0,0,0-2.212-.566,4.179,4.179,0,0,0-2.468.6,2.416,2.416,0,0,0-.926,1.869H54.255a5.611,5.611,0,0,1,.514-2.213,5.3,5.3,0,0,1,1.4-1.833,7.066,7.066,0,0,1,2.331-1.268,10.321,10.321,0,0,1,3.326-.481q3.942,0,5.675,1.7a6.4,6.4,0,0,1,1.731,4.783v8.949q0,1.989.617,2.434v.172ZM60.7,146.076a5,5,0,0,0,1.765-.291,4.242,4.242,0,0,0,1.3-.755,3.136,3.136,0,0,0,.807-1.062,2.991,2.991,0,0,0,.274-1.253v-2.639a5.409,5.409,0,0,1-1.492.6q-.875.224-1.765.429a9.343,9.343,0,0,0-2.744.959,2.294,2.294,0,0,0-.137,3.516A3.576,3.576,0,0,0,60.7,146.076Z" fill="#0c0b0c"/>
      <path id="Path_16257" data-name="Path 16257" d="M70.813,131.333h2.435v-5.485h4.56v5.485h3.018v3.086H77.808v9.325a1.655,1.655,0,0,0,.48,1.371,1.987,1.987,0,0,0,1.269.378h.892a3.355,3.355,0,0,0,.479-.034v3.428a7.244,7.244,0,0,1-.753.035q-.38.035-.927.035H78.014a7.77,7.77,0,0,1-1.7-.189,4.236,4.236,0,0,1-1.525-.669,3.559,3.559,0,0,1-1.116-1.3,4.432,4.432,0,0,1-.428-2.056V134.419H70.813Z" fill="#0c0b0c"/>
      <path id="Path_16258" data-name="Path 16258" d="M94.472,148.922a2.331,2.331,0,0,1-.344-.823,8.964,8.964,0,0,1-.205-1.131h-.069a6.063,6.063,0,0,1-.772.942,4.094,4.094,0,0,1-1.027.738,6.1,6.1,0,0,1-1.423.5,8.836,8.836,0,0,1-1.954.189,6.864,6.864,0,0,1-4.424-1.371,4.831,4.831,0,0,1-1.714-4.012,4.99,4.99,0,0,1,.548-2.434,4.735,4.735,0,0,1,1.51-1.645,7.607,7.607,0,0,1,2.244-1.012,20.826,20.826,0,0,1,2.761-.566,19.686,19.686,0,0,0,3.222-.652,1.322,1.322,0,0,0,1.029-1.336,1.824,1.824,0,0,0-.737-1.527,3.6,3.6,0,0,0-2.211-.566,4.182,4.182,0,0,0-2.469.6,2.418,2.418,0,0,0-.925,1.869H83.363a5.629,5.629,0,0,1,.515-2.213,5.293,5.293,0,0,1,1.4-1.833,7.072,7.072,0,0,1,2.332-1.268,10.321,10.321,0,0,1,3.326-.481q3.942,0,5.675,1.7a6.4,6.4,0,0,1,1.73,4.783v8.949q0,1.989.618,2.434v.172Zm-4.663-2.846a5,5,0,0,0,1.765-.291,4.253,4.253,0,0,0,1.3-.755,3.149,3.149,0,0,0,.807-1.062,2.991,2.991,0,0,0,.274-1.253v-2.639a5.41,5.41,0,0,1-1.492.6q-.875.224-1.765.429a9.332,9.332,0,0,0-2.744.959,2.294,2.294,0,0,0-.137,3.516A3.571,3.571,0,0,0,89.809,146.076Z" fill="#0c0b0c"/>
      <path id="Path_16259" data-name="Path 16259" d="M101.362,124.406h4.663v24.516h-4.663Z" fill="#0c0b0c"/>
      <path id="Path_16260" data-name="Path 16260" d="M117.373,149.436a9.875,9.875,0,0,1-3.89-.72,8.1,8.1,0,0,1-4.63-4.937,11.03,11.03,0,0,1-.6-3.669,10.335,10.335,0,0,1,.635-3.651,8.769,8.769,0,0,1,1.782-2.932,8.4,8.4,0,0,1,6.258-2.674,8.567,8.567,0,0,1,3.737.772,7.511,7.511,0,0,1,2.709,2.176,9.874,9.874,0,0,1,1.662,3.344,15.326,15.326,0,0,1,.566,4.3H112.848a5.6,5.6,0,0,0,1.388,3.223,4.094,4.094,0,0,0,3.1,1.164,3.736,3.736,0,0,0,2.195-.581,3.334,3.334,0,0,0,1.2-1.578h4.6a6.951,6.951,0,0,1-.874,2.211,6.79,6.79,0,0,1-1.646,1.836,8.029,8.029,0,0,1-2.384,1.251A9.481,9.481,0,0,1,117.373,149.436ZM117,134.453a3.7,3.7,0,0,0-2.813,1.012,5.223,5.223,0,0,0-1.268,2.759h7.817a4.144,4.144,0,0,0-1.114-2.726A3.486,3.486,0,0,0,117,134.453Z" fill="#0c0b0c"/>
      <path id="Path_16261" data-name="Path 16261" d="M136.094,149.436a9.392,9.392,0,0,1-3.738-.72,8.728,8.728,0,0,1-4.783-4.92,10.311,10.311,0,0,1,0-7.3,8.718,8.718,0,0,1,4.783-4.921,10.061,10.061,0,0,1,7.475,0,8.718,8.718,0,0,1,4.783,4.921,10.311,10.311,0,0,1,0,7.3,8.728,8.728,0,0,1-4.783,4.92A9.4,9.4,0,0,1,136.094,149.436Zm0-3.566a3.839,3.839,0,0,0,3.307-1.576,6.888,6.888,0,0,0,1.149-4.149,6.963,6.963,0,0,0-1.149-4.166,4.227,4.227,0,0,0-6.615,0,6.95,6.95,0,0,0-1.15,4.166,6.874,6.874,0,0,0,1.15,4.149A3.84,3.84,0,0,0,136.094,145.87Z" fill="#0c0b0c"/>
      <path id="Path_16262" data-name="Path 16262" d="M152,133.733h.1a6.154,6.154,0,0,1,2.143-2.16,6.707,6.707,0,0,1,5.555-.224,5.644,5.644,0,0,1,1.9,1.373,6.376,6.376,0,0,1,1.234,2.073,7.538,7.538,0,0,1,.446,2.641v11.486h-4.663v-10.8a3.389,3.389,0,0,0-.789-2.331,2.857,2.857,0,0,0-2.263-.892,3.3,3.3,0,0,0-2.554,1.114,4.184,4.184,0,0,0-1.012,2.931v9.978h-4.663V131.333H152Z" fill="#0c0b0c"/>
      <path id="Path_16263" data-name="Path 16263" d="M163.386,127.321h3.339v.665h-1.273v3.382h-.792v-3.382h-1.274Zm4,0h1.133l.876,3.085h.015l.891-3.085h1.146v4.047h-.736v-3.1h-.028c-.028.123-.062.251-.1.383-.028.113-.064.235-.106.368s-.083.263-.12.395l-.58,1.953h-.75l-.58-1.953c-.038-.113-.076-.237-.113-.375s-.071-.261-.1-.374l-.1-.4h-.028v3.1h-.722Z" fill="#0c0b0c"/>
    </g>
    <path id="Path_16264" data-name="Path 16264" d="M113.246,79.563h-1.053V52.2a5.486,5.486,0,0,0-5.524-5.739,5.568,5.568,0,0,0-3.392,1.142,5.6,5.6,0,0,0-5.541-4.151,5.89,5.89,0,0,0-3.828,1.377,5.274,5.274,0,0,0-1.782,3.453,6.229,6.229,0,0,0-3.395-.986c-3.283.019-5.576,2.155-5.576,5.195v24.45a5.24,5.24,0,0,0-2.739-.734,6.768,6.768,0,0,0-3.972,1.322,4.818,4.818,0,0,0-2.06,3.866,4.406,4.406,0,0,0,.229,1.393c.054.715.065,14.619.069,19.98a15.562,15.562,0,0,0,6.693,11.182c3.818,2.7,8.966,4.125,14.9,4.13,3.058,0,8.939-.444,13.963-3.42a13.975,13.975,0,0,0,7.294-12.488V84.409C117.531,82.031,115.928,79.568,113.246,79.563Zm-9.677.083V52.2a3.13,3.13,0,1,1,6.243,0V79.646ZM85.851,94.756h0a4.708,4.708,0,0,1-2.615.822,2.252,2.252,0,0,1-2.339-1.41c-.136-.433-3.765-11.357-4-12.046a2.386,2.386,0,0,1-.127-.738,2.493,2.493,0,0,1,1.112-1.955,4.37,4.37,0,0,1,2.54-.843A2.375,2.375,0,0,1,82.865,80.2L86.88,92.286a2.1,2.1,0,0,1,.106.637A2.306,2.306,0,0,1,85.851,94.756Zm-7.089.114h0A4.239,4.239,0,0,0,82.057,97.7a5.955,5.955,0,0,0,1.171.116,6.738,6.738,0,0,0,4.85-2.05,4.092,4.092,0,0,0,.939-4.185L85.536,81.121V52.488c0-1.93,1.611-2.8,3.2-2.813,2.238.01,3.24,1.42,3.24,2.813V81.271h2.482V79.107c0-2.685,0-24.139,0-30.023a3.3,3.3,0,0,1,6.608,0V79.647H99.818a3.406,3.406,0,0,0-2.456.9,3.313,3.313,0,0,0-.923,2.438A8.539,8.539,0,0,0,98.5,87.963a6.776,6.776,0,0,0,5.052,2.752h2.362v7.956h2.307V88.416h-4.669a4.565,4.565,0,0,1-3.3-1.943,6.252,6.252,0,0,1-1.5-3.479c.02-.812.244-1.028,1.081-1.05l13.419,0c1.3,0,1.906,1.471,1.906,2.463v17.759a11.559,11.559,0,0,1-6.127,10.44,25.8,25.8,0,0,1-12.758,3.086c-5.27,0-9.866-1.226-13.29-3.535a13.244,13.244,0,0,1-6.007-10.585l-.033-12.2Z" fill="#0c0b0c"/>
  </g>
</svg>