<?xml version="1.0" encoding="UTF-8" standalone="no"?>
<!-- Created with Inkscape (http://www.inkscape.org/) -->

<svg
   xmlns:dc="http://purl.org/dc/elements/1.1/"
   xmlns:cc="http://creativecommons.org/ns#"
   xmlns:rdf="http://www.w3.org/1999/02/22-rdf-syntax-ns#"
   xmlns:svg="http://www.w3.org/2000/svg"
   xmlns="http://www.w3.org/2000/svg"
   xmlns:sodipodi="http://sodipodi.sourceforge.net/DTD/sodipodi-0.dtd"
   xmlns:inkscape="http://www.inkscape.org/namespaces/inkscape"
   version="1.1"
   id="svg64"
   width="100"
   height="100"
   viewBox="0 0 99.999995 100"
   sodipodi:docname="favicon.svg"
   inkscape:version="0.92.5 (2060ec1f9f, 2020-04-08)"
   inkscape:export-filename="/home/srlm/Projects/ultrawidesnowboards.com/assets/img/site-logo.png"
   inkscape:export-xdpi="44.257786"
   inkscape:export-ydpi="44.257786">
  <metadata
     id="metadata70">
    <rdf:RDF>
      <cc:Work
         rdf:about="">
        <dc:format>image/svg+xml</dc:format>
        <dc:type
           rdf:resource="http://purl.org/dc/dcmitype/StillImage" />
        <dc:title></dc:title>
      </cc:Work>
    </rdf:RDF>
  </metadata>
  <defs
     id="defs68" />
  <sodipodi:namedview
     pagecolor="#ffffff"
     bordercolor="#666666"
     borderopacity="1"
     objecttolerance="10"
     gridtolerance="10"
     guidetolerance="10"
     inkscape:pageopacity="0"
     inkscape:pageshadow="2"
     inkscape:window-width="3768"
     inkscape:window-height="2102"
     id="namedview66"
     showgrid="false"
     fit-margin-top="0"
     fit-margin-left="0"
     fit-margin-right="0"
     fit-margin-bottom="0"
     inkscape:zoom="13.302554"
     inkscape:cx="0.82362693"
     inkscape:cy="52.617724"
     inkscape:window-x="1992"
     inkscape:window-y="21"
     inkscape:window-maximized="1"
     inkscape:current-layer="svg64"
     inkscape:pagecheckerboard="false" />
  <path
     style="fill:#ffffff;fill-opacity:1;stroke:#000000;stroke-width:2.41894412;stroke-miterlimit:4;stroke-dasharray:none;stroke-opacity:1;paint-order:fill markers stroke"
     d="M 92.177251,92.029407 C 96.011595,88.13223 96.739899,81.541102 93.619956,77.20749 92.110325,75.300573 90.349486,73.607707 88.600427,71.922937 83.913642,67.514832 78.827892,63.550208 74.218854,59.061383 57.597803,43.65772 41.649919,27.495367 26.878242,10.304117 24.751374,7.8565741 22.586238,5.1923014 19.476472,3.9562988 17.925607,3.3895209 16.275188,3.0055506 14.592776,3.1311024 11.554822,3.2989883 8.4423759,4.4889218 6.3548225,6.8300756 4.0527199,9.3140442 2.5039418,12.735418 2.9240494,16.103786 c 0.1265466,0.638967 0.2163375,1.275246 0.282756,1.924947 0.5225523,2.760294 2.3731381,5.014966 4.3793323,6.846642 14.3901153,12.439189 28.2391883,25.496741 41.4782923,39.152389 8.12482,8.142621 15.322426,17.151373 23.266626,25.462222 1.744051,1.675636 3.270245,3.666156 5.451873,4.817993 3.443463,1.924736 7.973279,2.057643 11.49543,-0.04924 1.029264,-0.646154 2.045682,-1.355571 2.89891,-2.22939 z"
     id="path74"
     inkscape:connector-curvature="0"
     sodipodi:nodetypes="cccccccccccccccc"
     inkscape:export-filename="/home/srlm/Projects/ultrawidesnowboards.com/assets/img/site-logo.png"
     inkscape:export-xdpi="44.257786"
     inkscape:export-ydpi="44.257786" />
</svg>
