<?xml version="1.0" encoding="UTF-8" standalone="no"?>
<!-- Created with Inkscape (http://www.inkscape.org/) -->

<svg
   xmlns:dc="http://purl.org/dc/elements/1.1/"
   xmlns:cc="http://creativecommons.org/ns#"
   xmlns:rdf="http://www.w3.org/1999/02/22-rdf-syntax-ns#"
   xmlns:svg="http://www.w3.org/2000/svg"
   xmlns="http://www.w3.org/2000/svg"
   xmlns:sodipodi="http://sodipodi.sourceforge.net/DTD/sodipodi-0.dtd"
   xmlns:inkscape="http://www.inkscape.org/namespaces/inkscape"
   version="1.1"
   id="svg64"
   width="1525.5906"
   height="325.68939"
   viewBox="0 0 1525.5905 325.6894"
   sodipodi:docname="site-logo.svg"
   inkscape:version="0.92.5 (2060ec1f9f, 2020-04-08)"
   inkscape:export-filename="/home/srlm/Projects/ultrawidesnowboards.com/assets/img/site-logo.png"
   inkscape:export-xdpi="44.257786"
   inkscape:export-ydpi="44.257786">
  <metadata
     id="metadata70">
    <rdf:RDF>
      <cc:Work
         rdf:about="">
        <dc:format>image/svg+xml</dc:format>
        <dc:type
           rdf:resource="http://purl.org/dc/dcmitype/StillImage" />
        <dc:title></dc:title>
      </cc:Work>
    </rdf:RDF>
  </metadata>
  <defs
     id="defs68" />
  <sodipodi:namedview
     pagecolor="#ffffff"
     bordercolor="#666666"
     borderopacity="1"
     objecttolerance="10"
     gridtolerance="10"
     guidetolerance="10"
     inkscape:pageopacity="0"
     inkscape:pageshadow="2"
     inkscape:window-width="3768"
     inkscape:window-height="2102"
     id="namedview66"
     showgrid="false"
     fit-margin-top="0"
     fit-margin-left="0"
     fit-margin-right="0"
     fit-margin-bottom="0"
     inkscape:zoom="1.6628192"
     inkscape:cx="777.64241"
     inkscape:cy="14.293359"
     inkscape:window-x="1992"
     inkscape:window-y="21"
     inkscape:window-maximized="1"
     inkscape:current-layer="svg64"
     inkscape:pagecheckerboard="false" />
  <path
     style="fill:#ffffff;fill-opacity:1;stroke:#000000;stroke-width:25.588;stroke-miterlimit:4;stroke-dasharray:none;stroke-opacity:1;paint-order:fill markers stroke"
     d="M 1512.7882,159.65528 C 1512.236,91.852903 1460.8229,27.664696 1395.4565,17.021021 c -29.963,-3.485786 -60.2514,-2.888113 -90.3615,-2.323543 -79.7591,2.445736 -159.1262,12.275435 -238.9109,13.329907 C 785.33772,38.703312 503.74569,36.822366 223.44419,15.60374 183.3271,12.79349 140.97291,8.4143209 102.86368,24.84671 84.291934,33.476682 66.451161,44.582678 52.798325,60.437859 27.630968,88.552179 10.768672,126.28203 12.993147,165.11972 c 1.588411,41.97233 18.017565,85.55842 51.241796,111.41349 6.711599,4.49385 13.082048,9.28659 19.359438,14.40127 28.792189,19.62428 64.792149,23.16814 98.447969,21.63758 235.28366,-17.10914 471.24375,-24.0503 707.10059,-20.39752 142.65756,0.16594 284.78196,16.03933 427.33026,19.25488 29.9899,-0.59964 60.829,3.47272 90.062,-5.55928 47.0785,-13.31834 87.966,-51.87716 100.3791,-101.24148 3.3444,-14.69269 6.0524,-29.82734 5.8739,-44.97338 z"
     id="path74"
     inkscape:connector-curvature="0"
     sodipodi:nodetypes="cccccccccccccccc"
     inkscape:export-filename="/home/srlm/Projects/ultrawidesnowboards.com/assets/img/site-logo.png"
     inkscape:export-xdpi="44.257786"
     inkscape:export-ydpi="44.257786" />
  <text
     xml:space="preserve"
     style="font-style:normal;font-weight:normal;font-size:48.76430511px;line-height:1.25;font-family:sans-serif;letter-spacing:0px;word-spacing:0px;fill:#000000;fill-opacity:1;stroke:none;stroke-width:1.21910763"
     x="59.419064"
     y="203.9182"
     id="text4593"><tspan
       sodipodi:role="line"
       id="tspan4591"
       x="59.419064"
       y="203.9182"
       style="font-style:normal;font-variant:normal;font-weight:normal;font-stretch:normal;font-size:117.03433228px;font-family:Chilanka;-inkscape-font-specification:Chilanka;stroke-width:1.21910763">UltrawideSnowboards.com</tspan></text>
</svg>
