<?xml version="1.0" encoding="UTF-8"?>
<!-- Generator: Adobe Illustrator 23.0.1, SVG Export Plug-In . SVG Version: 6.00 Build 0)  -->
<svg version="1.1" id="Calque_1" xmlns="http://www.w3.org/2000/svg" xmlns:xlink="http://www.w3.org/1999/xlink" x="0px" y="0px" viewBox="0 0 93.3 84" style="enable-background:new 0 0 93.3 84;" xml:space="preserve">
<style type="text/css">
	.st0{fill:#000000;}
</style>
<g>
	<path class="st0" d="M34.9,59.1c-0.2-0.8-0.2-1.5-0.4-2.2c-0.6,0.2-1,0.2-1.5,0.2c-0.4,0-1,0-1.4,0c-1.4,0-2.1-0.7-2.1-2.1   c0-2.1,0-4.3,0-6.4c0-0.2,0-0.2,0-0.6h-2.5v0.4c0,2.4,0,4.6,0,7c0,1.8,0.8,3.1,2.7,3.5C31.2,59.5,33.1,59.2,34.9,59.1z"/>
	<path class="st0" d="M43.7,59.3c1.5-0.4,2.5-1.4,2.8-2.9c0.2-0.8,0.2-1.7,0.2-2.5c0-0.8-0.2-1.5-0.2-2.2c-0.4-2-1.4-3.1-3.3-3.5   c-1.7-0.2-3.5-0.4-5.1,0c-1.7,0.4-2.7,1.5-2.9,3.2c-0.2,1.5-0.2,3.1,0,4.7c0.2,1.8,1.1,2.8,2.9,3.2C39.9,59.7,41.7,59.7,43.7,59.3z    M39.5,56.9c-1.1-0.2-1.7-0.7-1.8-1.8c-0.2-1-0.2-2.1,0-3.1c0.2-1,0.8-1.5,1.8-1.7c0.7,0,1.5,0,2.4,0c1.1,0,1.7,0.6,2,1.7   c0.2,1.2,0.2,2.2,0,3.3c-0.2,1.1-0.8,1.7-2.1,1.7c-0.2,0-0.6,0-1,0C40.3,57.1,39.9,57.1,39.5,56.9z"/>
	<path class="st0" d="M21.8,59.5c1,0,1.8-0.2,2.7-0.6c1.1-0.6,1.8-1.4,1.8-2.7c0-1.5,0.2-3.2,0-4.7c-0.4-1.8-1.2-2.9-2.9-3.3   c-2.5-0.7-5.1-0.2-7.4,0.2c-0.2,0-0.2,0.2-0.2,0.2c0,0.7,0,1.5,0,2.2c0.2,0,0.4-0.2,0.7-0.2c1.7-0.2,3.3-0.6,5.1-0.4   c0.4,0,0.8,0.2,1.2,0.2c0.6,0.2,0.7,1,0.2,1.2c-0.2,0.2-0.4,0.2-0.6,0.2c-1,0.2-2,0.2-2.9,0.6c-1.1,0.2-2.1,0.2-3.1,0.8   c-0.7,0.4-1.2,0.8-1.4,1.7c-0.2,1.7,0.2,3.2,2.1,3.9C18.7,59.5,20.2,59.5,21.8,59.5z M17.9,55.3c0.8-0.2,1.7-0.2,2.4-0.6   c1-0.2,2-0.4,3.1-0.7c0.2,0.4,0.2,0.7,0.2,1.1c0,1-0.4,1.5-1.4,1.8c-1.2,0.2-2.5,0.2-3.9,0c-0.2,0-0.2,0-0.2-0.2   c-0.2-0.2-0.6-0.4-0.6-0.8S17.5,55.4,17.9,55.3z"/>
	<path class="st0" d="M70.9,59.3c0.8,0.2,1.7,0.2,2.4,0.2c0.8,0,1.5-0.2,2.2-0.2c2-0.2,3.2-1.2,3.7-3.2c0.2-1.5,0.2-3.1,0.2-4.6   c-0.6-2.1-1.4-3.1-3.3-3.5c-1.7-0.2-3.5-0.2-5.1,0c-1.5,0.4-2.5,1.4-2.8,2.9c-0.2,1.7-0.2,3.3,0,5.1C68.3,57.9,69.3,59.1,70.9,59.3   z M70.3,51.9c0.2-0.8,0.8-1.5,1.8-1.5c0.7,0,1.5,0,2.2,0c1.2,0.2,2,0.6,2.1,1.8c0.2,1.1,0.2,2.1,0,2.9c-0.2,1.2-0.8,1.8-2.2,2   c-0.2,0-0.6,0-0.8,0c-0.4,0-1,0-1.4-0.2c-0.8-0.2-1.4-0.7-1.7-1.5C70.1,54.3,70.1,53.2,70.3,51.9z"/>
	<path class="st0" d="M88.2,48.1c-1.7-0.2-3.3-0.2-5.1,0c-1.5,0.4-2.5,1.4-2.8,2.9c-0.2,0.6-0.2,1.1-0.2,1.7c0,2,0,4.1,0,6   c0,0.2,0,0.2,0,0.4h2.5c0-1,0-1.8,0-2.7c0-1.2,0-2.7,0.2-3.9s0.8-2,2.1-2.1c0.7,0,1.4,0,2.1,0c1,0,1.5,0.7,1.8,1.5   c0.2,0.6,0.2,1.1,0.2,1.5c0,1.7,0,3.3,0,5.1v0.4h2.5c0-2.5,0-4.7-0.2-7.2C91.3,49.7,90.2,48.5,88.2,48.1z"/>
	<path class="st0" d="M91.6,59.1L91.6,59.1C91.6,59.1,91.6,59.2,91.6,59.1L91.6,59.1z"/>
	<path class="st0" d="M13.8,55.8c0-1.5-0.7-2.4-2.2-2.7c-1.2-0.2-2.5-0.4-3.7-0.6c-0.7-0.2-1.5-0.2-2.2-0.4C5.3,52,5,51.9,5,51.4   c0-0.5,0.2-0.7,0.7-0.8c0.5-0.1,1-0.2,1.4-0.2c2.1-0.2,4.2,0,6.1,0.7c0-0.7,0-1.4,0-2c0-0.2-0.2-0.4-0.4-0.6   c-2.2-0.4-4.5-0.6-6.7-0.4c-0.8,0.2-1.7,0.2-2.4,0.7c-0.9,0.2-1.3,1-1.5,1.8c-0.4,2,0.2,3.2,2.2,3.7c0.2,0,0.2,0.2,0.6,0.2   c1.2,0.2,2.5,0.4,3.7,0.6c0.6,0.2,1.2,0.2,1.8,0.4c0.2,0,0.5,0.4,0.5,0.6c0,0.2-0.2,0.6-0.4,0.7C10.5,57,10.4,57,10,57   c-2,0.2-3.9,0.2-5.9-0.2c-0.6-0.2-1.1-0.2-1.7-0.4c0,0.7,0,1.4,0,2.2c0,0.2,0.2,0.4,0.2,0.4c1.7,0.4,3.3,0.6,5.1,0.6   c1.4,0,2.8,0,4.1-0.6C13.2,58.3,14,57.3,13.8,55.8z"/>
	<path class="st0" d="M63.9,59.2h2.5c0-1.4,0-2.8,0-4.2c0.2-1.1,0.2-2.4,0-3.5c-0.2-1.7-1.1-2.8-2.8-3.2c-0.7-0.2-1.4-0.2-2.1-0.2   c-1.7,0-3.2,0-4.5,1.1c-0.7-0.2-1.2-0.7-1.8-0.8c-1.5-0.4-3.1-0.4-4.6-0.2c-1.8,0.2-2.8,1.4-3.1,3.3c-0.4,2.5-0.2,5.1-0.2,7.6   c0,0.2,0.2,0.2,0.2,0.2c0.8,0,1.5,0,2.4,0v-0.6c0-1.5,0-3.2,0-4.7c0-0.7,0-1.2,0.2-2c0.2-0.8,0.7-1.4,1.4-1.4   c0.8-0.2,1.5-0.2,2.4,0c0.8,0.2,1.4,0.7,1.7,1.5c0.2,0.4,0.2,1,0.2,1.4c0,1.7,0,3.5,0,5.1c0,0.2,0,0.2,0,0.4h2.5c0-0.2,0-0.4,0-0.6   c0-2,0-3.9,0-5.7c0-1.4,0.6-2.2,1.7-2.4c0.7-0.2,1.5-0.2,2.4,0c0.8,0.2,1.2,0.7,1.5,1.5c0.2,0.6,0.2,1.1,0.2,1.7c0,1.5,0,2.9,0,4.5   C63.9,58.2,63.9,59.2,63.9,59.2z"/>
	<path class="st0" d="M34.1,39.1c8.6,0,17.2,0,25.8,0c0.2,0,0.6,0,1-0.2c1.2-0.4,2.1-1.5,2.1-3.1c0-8.6,0-17.4,0-26   c0-0.2,0-0.2,0-0.2c0-1.4-1-2.5-2.4-2.9h-0.2h-27h-0.2C32,7.1,31,8.2,31,9.8c0,8.8,0,17.4,0,26.2C31.1,37.8,32.4,39.1,34.1,39.1z    M35.5,12.8c0-0.8,0.4-1.4,1.2-1.5c3.3-0.2,6.8-0.5,10.2-0.5c0.4,0,6,0.2,9,0.4c0.4,0,0.8,0.2,1.2,0.2c0.7,0.2,1.2,0.7,1.2,1.4   c0,1.1,0,2.2,0,3.5c0,0.4-0.2,0.7-0.7,0.7c-1.1,0-2.2,0-3.3,0c-0.4,0-0.8-0.2-1.2-0.4c-0.8-0.4-1.7-1-2.5-1.4   c-0.6-0.2-1-0.4-1.5-0.4c-1.7,0-3.3,0-5.1,0c-0.7,0-1.1,0.2-1.2,0.8c-0.2,0.7,0,1.1,0.7,1.5c4.5,2.7,9,5.1,13.5,7.8   c1,0.6,1.5,1.5,1.5,2.7c0,1.8,0,3.7,0,5.6c0,0.8-0.4,1.4-1.2,1.5c-3.1,0.2-6.1,0.6-9.2,0.6c-2.4,0-4.9-0.2-7.2-0.2   c-1.4,0-2.7-0.2-4.1-0.2c-0.7-0.2-1.2-0.6-1.2-1.4c0-1.1,0-2.2,0-3.3c0-0.6,0.2-0.7,0.7-0.7c1.1,0,2.2,0,3.2,0   c0.4,0,0.8,0.2,1.2,0.4c0.8,0.4,1.7,1,2.5,1.4c0.6,0.2,1,0.4,1.5,0.4c1.7,0,3.3,0,5.1,0c0.7,0,1.1-0.2,1.2-0.8   c0.2-0.6-0.2-1.1-0.7-1.5c-4.5-2.7-9-5.1-13.5-7.8c-1-0.6-1.5-1.4-1.5-2.7C35.5,16.6,35.5,14.7,35.5,12.8z"/>
	<path class="st0" d="M14,66.6H9.1C9,66.6,9,66.7,9,66.8v1C9,67.9,9.1,68,9.1,68h1.7v6.7c0,0.2,0.2,0.4,0.2,0.4h1   c0.2,0,0.2-0.2,0.2-0.2v-6.7h1.7c0.2,0,0.2-0.2,0.2-0.2v-1C14.2,66.7,14,66.6,14,66.6z"/>
	<path class="st0" d="M26.7,66.6c0,0,0-0.2-0.2-0.2h-0.2c-0.2,0-0.2,0-0.2,0.2l-2.4,5.7l-2.4-5.7c0-0.2-0.2-0.2-0.2-0.2h-0.2   c-0.2,0-0.2,0.2-0.2,0.2l-1.7,8.1c0,0.2,0,0.2,0.2,0.2h1c0.2,0,0.2-0.2,0.2-0.2l0.7-4.6l2,4.7c0,0.2,0.2,0.2,0.2,0.2h0.2   c0.2,0,0.2,0,0.2-0.2l2-4.6l0.7,4.6c0,0.2,0.2,0.2,0.2,0.2h1.1c0.2,0,0.2-0.2,0.2-0.2L26.7,66.6z"/>
	<path class="st0" d="M69.7,73.6h-2.8v-6.7c0-0.2-0.2-0.2-0.2-0.2h-1c-0.2,0-0.2,0.2-0.2,0.2v8c0,0.2,0.2,0.2,0.2,0.2h3.9   c0.2,0,0.2-0.2,0.2-0.2v-1C69.9,73.7,69.8,73.6,69.7,73.6z"/>
	<path class="st0" d="M74.8,66.6c0-0.2,0-0.2-0.2-0.2c-0.2,0-0.2,0-0.2,0.2l-3.5,8.1c0,0.2,0,0.2,0.2,0.2h1c0.2,0,0.2-0.2,0.2-0.2   l0.6-1.2h3.3l0.6,1.2c0.2,0.2,0.2,0.2,0.2,0.2h1c0.2,0,0.2-0.2,0.2-0.2L74.8,66.6z M73.4,72.2l1.1-2.7l1.1,2.7H73.4z"/>
	<path class="st0" d="M61.1,66.6h-2.7c-0.2,0-0.2,0.2-0.2,0.2v8c0,0.2,0.2,0.2,0.2,0.2h1c0.2,0,0.2-0.2,0.2-0.2V72H61   c1.4,0,2.5-1.2,2.5-2.7C63.6,67.7,62.5,66.6,61.1,66.6z M61.1,70.5h-1.2v-2.4h1.2c0.6,0,1.1,0.6,1.1,1.1   C62.3,70,61.7,70.5,61.1,70.5z"/>
	<path class="st0" d="M83.4,66.6c-0.2,0-0.2,0-0.2,0.2l-1.8,2.8l-1.8-2.8l-0.2-0.2h-1.1c-0.2,0-0.2,0.2-0.2,0.2l2.5,4.1v3.7   c0,0.2,0.2,0.2,0.2,0.2h1c0.2,0,0.2-0.2,0.2-0.2v-3.9l2.5-4.1c0.2,0,0.2-0.2,0-0.2L83.4,66.6L83.4,66.6z"/>
	<path class="st0" d="M30.2,66.6c-0.2,0-0.2,0.2-0.2,0.2v8c0,0.2,0.2,0.2,0.2,0.2h4.5c0.2,0,0.2-0.2,0.2-0.2v-1   c0-0.2-0.2-0.2-0.2-0.2h-3.2v-2.1h2.7c0.2,0,0.2-0.2,0.2-0.2v-1c0-0.2-0.2-0.2-0.2-0.2h-2.7v-2h3.2c0.2,0,0.2-0.2,0.2-0.2v-1   c-0.2,0-0.2-0.2-0.2-0.2L30.2,66.6L30.2,66.6z"/>
	<path class="st0" d="M16.2,66.6c-0.2,0-0.2,0.2-0.2,0.2v8c0,0.2,0.2,0.2,0.2,0.2h1c0.2,0,0.2-0.2,0.2-0.2v-8c0-0.2-0.2-0.2-0.2-0.2   H16.2z"/>
	<path class="st0" d="M49.4,66.5c-2.2,0-3.9,2-3.9,4.3c0,2.4,1.8,4.3,3.9,4.3c2.2,0,3.9-2,3.9-4.3C53.5,68.4,51.7,66.5,49.4,66.5z    M49.4,73.6c-1.4,0-2.5-1.2-2.5-2.8c0-1.5,1.1-2.8,2.5-2.8c1.4,0,2.5,1.2,2.5,2.8C51.9,72.3,50.8,73.6,49.4,73.6z"/>
	<path class="st0" d="M39.5,66.6c-0.2,0-0.2,0.2-0.2,0.2v1c0,0.2,0.2,0.2,0.2,0.2h1.7v6.7c0,0.2,0.2,0.2,0.2,0.2h1   c0.2,0,0.2-0.2,0.2-0.2V68h1.7c0.2,0,0.2-0.2,0.2-0.2v-1c0.2-0.2,0.2-0.2,0-0.2H39.5z"/>
</g>
</svg>
