<?xml version="1.0" encoding="UTF-8"?>
<!-- Generator: Adobe Illustrator 21.1.0, SVG Export Plug-In . SVG Version: 6.00 Build 0)  -->
<svg id="Calque_1" data-name="Calque 1" xmlns="http://www.w3.org/2000/svg" viewBox="0 0 324.1 66.37">
	<defs>
		<style>.cls-1{fill:#2c2e42;}.cls-2{fill:#fff;}.cls-3{fill:#b81b36;}</style>
	</defs>
	<title>LOGOROSSIGNOLCORPORATE2019</title>
	<path class="cls-1" d="M53.72,26a12.93,12.93,0,0,0-9.89,4c-3.57,3.56-3.57,8.39-3.55,13.5v1.2c0,5.11,0,9.93,3.55,13.5a13,13,0,0,0,9.89,4,12.94,12.94,0,0,0,9.87-4c3.57-3.57,3.57-8.39,3.56-13.5v-1.2c0-5.11,0-9.94-3.56-13.5A12.9,12.9,0,0,0,53.72,26Zm3.85,27.15a5.08,5.08,0,0,1-7.71,0c-.88-1.14-1.4-2.32-1.4-9.08s.56-8,1.4-9.14a5.2,5.2,0,0,1,7.71,0C58.41,36,59,37.26,59,44.05S58.43,52,57.57,53.13ZM87.2,40.49l-4.37-.62a4.43,4.43,0,0,1-2.71-1.16,2.77,2.77,0,0,1-.82-1.94c0-1.86,1.47-3.73,4.76-3.73h.27a9.12,9.12,0,0,1,6.57,2c.07-.08,5-5,5.1-5.09-2.89-2.76-6.5-4-11.69-4-7.7,0-12.88,4.46-12.88,11.09,0,3,.8,5.4,2.39,7a12,12,0,0,0,7.07,3.09l4.39.62a4.49,4.49,0,0,1,2.6,1.06,3.47,3.47,0,0,1,.81,2.4c0,2.38-1.92,3.62-5.56,3.62-1.62,0-5.61-.23-8.07-2.43-.07.08-5.11,5.13-5.2,5.21C73,60.8,77,62.13,83.08,62.13c6.79,0,13.64-3.43,13.64-11.05,0-3.48-.84-6-2.59-7.68C92.64,41.9,90.32,40.93,87.2,40.49Zm29.15,0L112,39.87a4.44,4.44,0,0,1-2.72-1.16,2.81,2.81,0,0,1-.82-1.94c0-1.86,1.47-3.73,4.74-3.73h.29c1.62,0,4.33,0,6.57,2L125.12,30c-2.89-2.76-6.49-4-11.69-4-7.71,0-12.89,4.46-12.89,11.09a9.71,9.71,0,0,0,2.42,7A11.89,11.89,0,0,0,110,47.2l4.37.62a4.41,4.41,0,0,1,2.6,1.06,3.34,3.34,0,0,1,.83,2.4c0,2.38-1.92,3.62-5.56,3.62-1.62,0-5.61-.23-8.07-2.43-.07.08-5.12,5.13-5.21,5.21,3.17,3.12,7.12,4.45,13.22,4.45,6.8,0,13.65-3.43,13.65-11.05,0-3.48-.85-6-2.59-7.68C121.76,41.9,119.44,40.93,116.35,40.49Zm14.53,21.33h8.18V26.29h-8.18Zm27-13.44h5.35v.86a5.81,5.81,0,0,1-1.48,4.14,5.58,5.58,0,0,1-4.23,1.52,4.67,4.67,0,0,1-3.8-1.67c-.84-1.11-1.4-2.34-1.4-9.18s.56-8,1.4-9.14a4.77,4.77,0,0,1,3.8-1.71c3,0,4.63,1.18,5.46,4.07h8.26C170.71,34.54,168.35,26,157.47,26a12.82,12.82,0,0,0-9.82,4c-3.58,3.56-3.57,8.39-3.57,13.5v1.2c0,5.11,0,9.93,3.57,13.5a13.16,13.16,0,0,0,9.82,4c4.52,0,7.59-1.2,10.28-4s3.56-5.85,3.56-11.81V41.66H157.83ZM221.71,26a12.91,12.91,0,0,0-9.87,4c-3.58,3.56-3.57,8.39-3.57,13.5v1.2c0,5.11,0,9.93,3.57,13.5a14.25,14.25,0,0,0,19.76,0c3.56-3.57,3.55-8.39,3.55-13.5v-1.2c0-5.11,0-9.94-3.55-13.5A12.93,12.93,0,0,0,221.71,26Zm3.87,27.15a5.09,5.09,0,0,1-7.72,0c-.87-1.14-1.4-2.32-1.4-9.08s.56-8,1.4-9.14a5.21,5.21,0,0,1,7.72,0c.83,1.11,1.39,2.35,1.39,9.14S226.44,52,225.58,53.13Zm24.18-.3c-.84-1.11-1.4-2.35-1.4-9.14,0,0,0-16.76,0-17.4h-8.19V44.94c0,4.39,0,9.35,3.56,12.91a12.93,12.93,0,0,0,9.87,4h10V54.54h-10A4.82,4.82,0,0,1,249.76,52.83ZM30.42,46.73a10.19,10.19,0,0,0,5.71-9.15c0-5.61-4.15-11.29-12-11.29h-14V61.82H18.3V48.38h1.47c1.94,0,2.61,1,3.22,2.25,1.82,3.84,5.3,11.14,5.32,11.19h9.5c-.08-.18-7.73-14.92-7.73-14.92ZM23.7,41.61H18.3V33.54h5.4a4,4,0,1,1,0,8.07ZM189.78,26.29H176.33V61.82h8.2c0-.1,0-16.31,0-16.31v-12h5.26a4.81,4.81,0,0,1,3.85,1.72c.78,1,1.31,2.18,1.39,7.78V61.82h8.2V43.15c0-4.39,0-9.34-3.56-12.9A13,13,0,0,0,189.78,26.29Z" transform="translate(-10.11 -11.11)"/>
	<path class="cls-2" d="M272.14,20.66c.09,3.53,1.34,13,10.43,29.22,4.93,8.79,9.85,15.44,14.63,19.76a25.74,25.74,0,0,0,3.45,2.69c2.92-1.9,10.18-7.82,19.06-23.68,8.74-15.59,9.84-24.46,9.88-27.76-3-1.67-11.61-5.24-29.48-5.24C283,15.65,275,19.06,272.14,20.66Z" transform="translate(-10.11 -11.11)"/>
	<path class="cls-3" d="M330.63,20.28c-3.11-1.86-11.78-5.68-30.52-5.68-18.06,0-26.14,3.67-29,5.47,0,3.69,1.05,13.36,10.56,30.32,5,8.9,10,15.63,14.84,20a25.39,25.39,0,0,0,4.17,3.14c3.12-1.87,10.64-7.75,20-24.4C329.8,32.79,330.73,23.73,330.63,20.28ZM297.2,69.64c-4.78-4.32-9.7-11-14.63-19.76-9.09-16.21-10.34-25.69-10.43-29.22,2.81-1.6,10.82-5,28-5,17.87,0,26.45,3.57,29.48,5.24,0,3.3-1.14,12.17-9.88,27.76-8.88,15.86-16.14,21.78-19.06,23.68A25.74,25.74,0,0,1,297.2,69.64Z" transform="translate(-10.11 -11.11)"/>
	<path class="cls-1" d="M334.05,18.46l0-.11-.09-.07c-2.23-1.68-11.26-7.17-33.83-7.17-22,0-30.34,5.4-32.38,7.05l-.09.07v.11c-.34,2.74-.57,13.26,10.91,33.73,11.2,20,19.72,24.46,22.06,25.37l.11,0,.11,0c2.52-1.13,11.61-6.4,22.93-26.59C334.93,30.88,334.46,21,334.05,18.46ZM322.27,50.08c-9.94,17.73-18,23.62-21,25.33l-.55.31-.56-.3a26.09,26.09,0,0,1-4.89-3.6c-5-4.54-10.13-11.44-15.22-20.51-10.09-18-10.91-28.15-10.79-31.68l0-.6.49-.32c2.71-1.81,11.1-6,30.38-6C320,12.72,329,17,332,18.89l.5.32,0,.58C332.68,23.09,332,32.64,322.27,50.08Z" transform="translate(-10.11 -11.11)"/>
	<path class="cls-2" d="M332.49,19.79l0-.58-.5-.32C329,17,320,12.72,300.11,12.72c-19.28,0-27.67,4.18-30.38,6l-.49.32,0,.6c-.12,3.53.7,13.69,10.79,31.68,5.09,9.07,10.21,16,15.22,20.51a26.09,26.09,0,0,0,4.89,3.6l.56.3.55-.31c3-1.71,11.1-7.6,21-25.33C332,32.64,332.68,23.09,332.49,19.79ZM300.11,14.6c18.74,0,27.41,3.82,30.52,5.68.1,3.45-.83,12.51-10,28.88-9.33,16.65-16.85,22.53-20,24.4a25.39,25.39,0,0,1-4.17-3.14c-4.85-4.4-9.85-11.13-14.84-20-9.51-17-10.59-26.63-10.56-30.32C274,18.27,282.05,14.6,300.11,14.6Z" transform="translate(-10.11 -11.11)"/>
	<path class="cls-1" d="M298.09,28.17V40.81c-4.5-.55-8.14-3.48-8.14-7,0-2.9,2.33-5.39,5.66-6.49-.05,0-1.65-1-4.26.43a3.87,3.87,0,0,0,.94-3.92A6.14,6.14,0,0,1,290,26.51a4.25,4.25,0,0,0-.73-3.6c-.15,2.19-3.81,4.29-5.36,5.86a5.38,5.38,0,0,0-1.36,3.81v1.76A3.58,3.58,0,0,0,280,38.6a4.55,4.55,0,0,1,3.18-1.05c7.14,0,3.71,13.74,14.87,17v5.62a1.64,1.64,0,0,0,1.63,1.63h.16V26.38A1.79,1.79,0,0,0,298.09,28.17Z" transform="translate(-10.11 -11.11)"/>
	<path class="cls-3" d="M303.19,28.17a1.78,1.78,0,0,0-1.78-1.79V61.82h.18a1.62,1.62,0,0,0,1.6-1.63v-5.6c3.66-1.2,5.57-3.93,6.79-8.42a4.23,4.23,0,0,1,.63-1.42A1.75,1.75,0,0,1,312,44a1.69,1.69,0,0,1,1.7,1.71,7.23,7.23,0,0,0,.74-2.23,6.78,6.78,0,0,0-.1-2.21c1.56,0,2.29,2.62,2.29,2.62a6.64,6.64,0,0,0,.7-2.25,6.87,6.87,0,0,0-.35-3c1.53,0,2.07,2.55,2.07,2.55a6.27,6.27,0,0,0,.65-2.24,6,6,0,0,0-.19-2.58c1.24,0,1.94,2.12,1.94,2.12a6.31,6.31,0,0,0,.4-2.31,6.87,6.87,0,0,0-7-6.8,7.1,7.1,0,0,0-5.37,2.43,15.46,15.46,0,0,0-2.29,3.78c-1.1,2.45-2.16,4.16-4,5.08Z" transform="translate(-10.11 -11.11)"/>
</svg>