<svg xmlns="http://www.w3.org/2000/svg" viewBox="0 0 224.02 85.09"><defs><style>.a{fill:#FFFFFF;}</style></defs><title>yeslogo</title><polygon class="a" points="19.89 84.11 5.26 84.11 26.41 47.07 0 1.09 14.94 1.09 33.82 34.1 52.67 1.09 67.62 1.09 19.89 84.11"/><polygon class="a" points="128.64 84 77.18 84 77.18 1.09 127.88 1.09 127.88 12.06 89.89 12.06 89.89 36.35 120.13 36.35 120.13 47.32 89.89 47.32 89.89 73.03 128.64 73.03 128.64 84"/><path class="a" d="M168.51,85.09c-11.82,0-22.18-4.53-29.2-12.75L138.2,71l11-7.14L150,65a25.75,25.75,0,0,0,19.35,9c7,0,14.55-4.93,14.55-12.91,0-7.78-8.23-10.84-17.76-14.37-11.48-4.26-24.49-9.1-24.49-24C141.68,8.9,151.91,0,167.74,0c9.38,0,19.89,4.38,25.57,10.65L194.56,12l-11.22,6.39-.81-.77a22.24,22.24,0,0,0-15.22-6c-5.36,0-12.91,2.89-12.91,9.31,0,7.83,8.13,10.84,17.55,14.34,11.57,4.3,24.69,9.17,24.69,24.74C196.64,74.31,184.55,85.09,168.51,85.09Z"/><path class="a" d="M215.31,85.09a8.65,8.65,0,1,1,8.71-8.6A8.6,8.6,0,0,1,215.31,85.09Z"/></svg>